<svg width="100%" height="100%" viewBox="0 0 1450 400" version="1.1" xmlns="http://www.w3.org/2000/svg" xmlns:xlink="http://www.w3.org/1999/xlink" xml:space="preserve" xmlns:serif="http://www.serif.com/" style="fill-rule:evenodd;clip-rule:evenodd;stroke-linejoin:round;stroke-miterlimit:2;">
    <g id="Layer-1" serif:id="Layer 1" transform="matrix(1,0,0,1,-275,-800)">
        <g transform="matrix(1,0,0,1,598.157,1088.26)">
            <path d="M0,-89.053L-46.152,-89.053L-46.152,-51.189L-4.875,-51.189L-4.875,-39.001L-46.152,-39.001L-46.152,0L0,0L0,12.188L-60.939,12.188L-60.939,-101.241L0,-101.241L0,-89.053Z" style="fill:rgb(41,171,226);fill-rule:nonzero;"/>
        </g>
        <g transform="matrix(1,0,0,1,661.685,1101.92)">
            <path d="M0,-91.978C22.101,-91.978 36.563,-80.603 41.114,-61.915L25.188,-61.915C22.101,-72.64 13.163,-79.465 0,-79.465C-16.25,-79.465 -28.276,-67.927 -28.276,-46.152C-28.276,-24.051 -16.25,-12.513 0,-12.513C13.163,-12.513 21.938,-18.851 25.188,-30.064L41.114,-30.064C36.563,-12.35 22.101,0 0,0C-25.351,0 -43.389,-17.875 -43.389,-46.152C-43.389,-74.102 -25.351,-91.978 0,-91.978" style="fill:rgb(41,171,226);fill-rule:nonzero;"/>
        </g>
        <g transform="matrix(1,0,0,1,764.54,1022.94)">
            <path d="M0,65.978C15.438,65.978 30.551,55.415 30.551,32.827C30.551,10.401 15.763,-0.162 0.488,-0.162C-15.113,-0.162 -29.251,10.401 -29.251,32.827C-29.251,55.415 -15.438,65.978 0,65.978M0,78.978C-25.188,78.978 -44.364,61.103 -44.364,32.827C-44.364,4.713 -24.538,-13 0.65,-13C26.001,-13 45.664,4.713 45.664,32.827C45.664,61.103 25.351,78.978 0,78.978" style="fill:rgb(41,171,226);fill-rule:nonzero;"/>
        </g>
        <g transform="matrix(1,0,0,1,961.483,1060.15)">
            <path d="M0,-10.076C0,-28.276 -9.75,-37.539 -24.376,-37.539C-39.326,-37.539 -49.564,-27.951 -49.564,-8.776L-49.564,40.301L-64.189,40.301L-64.189,-10.076C-64.189,-28.276 -73.94,-37.539 -88.565,-37.539C-103.516,-37.539 -113.754,-27.951 -113.754,-8.776L-113.754,40.301L-128.542,40.301L-128.542,-48.752L-113.754,-48.752L-113.754,-35.914C-107.903,-45.34 -97.341,-50.377 -85.64,-50.377C-71.015,-50.377 -58.827,-43.877 -52.977,-30.552C-47.776,-43.389 -35.101,-50.377 -21.451,-50.377C-1.138,-50.377 14.625,-37.702 14.625,-12.188L14.625,40.301L0,40.301L0,-10.076Z" style="fill:rgb(41,171,226);fill-rule:nonzero;"/>
        </g>
        <g transform="matrix(1,0,0,1,1038.82,999.375)">
            <path d="M0,88.89C29.576,88.89 45.015,72.315 45.015,44.689C45.015,17.063 29.576,-0.163 0,-0.163L-20.476,-0.163L-20.476,88.89L0,88.89ZM60.127,44.689C60.127,79.79 37.214,101.078 0,101.078L-35.264,101.078L-35.264,-12.188L0,-12.188C37.214,-12.188 60.127,9.588 60.127,44.689" style="fill:rgb(45,55,72);fill-rule:nonzero;"/>
        </g>
        <g transform="matrix(1,0,0,1,0,77.24)">
            <path d="M1121.68,934.16L1136.47,934.16L1136.47,1023.21L1121.68,1023.21L1121.68,934.16ZM1119.24,909.622C1119.24,903.934 1123.63,899.547 1129.32,899.547C1134.68,899.547 1139.07,903.934 1139.07,909.622C1139.07,915.309 1134.68,919.697 1129.32,919.697C1123.63,919.697 1119.24,915.309 1119.24,909.622" style="fill:rgb(45,55,72);fill-rule:nonzero;"/>
        </g>
        <g transform="matrix(1,0,0,1,1196.43,1009.94)">
            <path d="M0,91.978C-20.801,91.978 -35.427,80.603 -36.401,64.353L-21.126,64.353C-20.313,72.965 -12.676,79.465 -0.161,79.465C11.539,79.465 18.04,73.616 18.04,66.302C18.04,46.477 -34.614,58.015 -34.614,24.864C-34.614,11.213 -21.776,0 -1.95,0C17.711,0 30.711,10.563 31.69,27.952L16.9,27.952C16.25,19.013 9.425,12.513 -2.439,12.513C-13.326,12.513 -19.826,17.713 -19.826,24.864C-19.826,45.99 31.851,34.452 32.501,66.302C32.501,80.928 19.661,91.978 0,91.978" style="fill:rgb(45,55,72);fill-rule:nonzero;"/>
        </g>
        <g transform="matrix(1,0,0,1,1290.83,1101.92)">
            <path d="M0,-91.978C22.101,-91.978 36.562,-80.603 41.111,-61.915L25.19,-61.915C22.101,-72.64 13.161,-79.465 0,-79.465C-16.251,-79.465 -28.276,-67.927 -28.276,-46.152C-28.276,-24.051 -16.251,-12.513 0,-12.513C13.161,-12.513 21.939,-18.851 25.19,-30.064L41.111,-30.064C36.562,-12.35 22.101,0 0,0C-25.351,0 -43.391,-17.875 -43.391,-46.152C-43.391,-74.102 -25.351,-91.978 0,-91.978" style="fill:rgb(45,55,72);fill-rule:nonzero;"/>
        </g>
        <g transform="matrix(1,0,0,1,1393.69,1022.94)">
            <path d="M0,65.978C15.436,65.978 30.551,55.415 30.551,32.827C30.551,10.401 15.765,-0.162 0.485,-0.162C-15.115,-0.162 -29.251,10.401 -29.251,32.827C-29.251,55.415 -15.437,65.978 0,65.978M0,78.978C-25.187,78.978 -44.366,61.103 -44.366,32.827C-44.366,4.713 -24.536,-13 0.65,-13C26.001,-13 45.666,4.713 45.666,32.827C45.666,61.103 25.351,78.978 0,78.978" style="fill:rgb(45,55,72);fill-rule:nonzero;"/>
        </g>
        <g transform="matrix(1,0,0,1,1467.45,1100.45)">
            <path d="M0,-89.053L27.787,-13.651L55.417,-89.053L71.178,-89.053L36.237,0L19.016,0L-15.925,-89.053L0,-89.053Z" style="fill:rgb(45,55,72);fill-rule:nonzero;"/>
        </g>
        <g transform="matrix(1,0,0,1,1566.24,1062.43)">
            <path d="M0,-13.001L56.23,-13.001C56.391,-30.389 43.391,-39.977 28.115,-39.977C13.65,-39.977 1.629,-30.389 0,-13.001M28.765,39.488C3.414,39.488 -15.272,21.613 -15.272,-6.663C-15.272,-34.776 2.764,-52.489 28.765,-52.489C54.602,-52.489 71.502,-34.289 71.502,-9.913C71.502,-6.663 71.342,-4.063 71.017,-0.976L-0.161,-0.976C0.979,17.062 13.65,26.976 28.765,26.976C42.091,26.976 50.541,20.15 53.791,10.562L69.717,10.562C65.166,26.813 50.865,39.488 28.765,39.488" style="fill:rgb(45,55,72);fill-rule:nonzero;"/>
        </g>
        <g transform="matrix(1,0,0,1,1675.27,1009.78)">
            <path d="M0,90.678L-14.786,90.678L-14.786,1.625L0,1.625L0,16.088C5.036,6.175 14.626,0 28.766,0L28.766,15.276L24.865,15.276C10.726,15.276 0,21.613 0,42.251L0,90.678Z" style="fill:rgb(45,55,72);fill-rule:nonzero;"/>
        </g>
        <g transform="matrix(1,0,0,1,368.056,806.883)">
            <path d="M0,292.013C-1.552,292.013 -3.053,291.185 -3.84,289.725C-4.749,288.041 -93.282,120.012 33.929,0.999C35.644,-0.604 38.337,-0.563 39.993,1.105C41.183,2.3 157.95,122.349 67.721,287.403L65.952,290.078C64.615,292.077 61.907,292.617 59.904,291.277C57.903,289.938 57.367,287.23 58.706,285.229L60.272,282.888C139.137,138.589 53.859,29.981 36.693,10.41C-80.957,124.686 2.963,283.973 3.832,285.582C4.975,287.701 4.185,290.346 2.067,291.49C1.409,291.845 0.698,292.013 0,292.013" style="fill:rgb(41,171,226);fill-rule:nonzero;"/>
        </g>
        <g transform="matrix(1,0,0,1,308.577,932.367)">
            <path d="M0,112.797C-0.383,112.797 -0.771,112.746 -1.153,112.642C-2.861,112.174 -4.114,110.72 -4.327,108.961L-12.582,40.787C-12.752,39.386 -12.233,37.988 -11.188,37.039L27.762,1.62C29.548,0 32.3,0.134 33.92,1.912C35.54,3.693 35.41,6.45 33.628,8.07L-3.657,41.975L3.046,97.33L27.562,65.473C29.031,63.566 31.774,63.208 33.675,64.677C35.583,66.146 35.94,68.883 34.472,70.79L3.455,111.097C2.616,112.187 1.333,112.797 0,112.797" style="fill:rgb(41,171,226);fill-rule:nonzero;"/>
        </g>
        <g transform="matrix(1,0,0,1,494.996,931.797)">
            <path d="M0,113.367C-1.333,113.367 -2.618,112.757 -3.457,111.667L-34.867,70.846C-36.336,68.938 -35.979,66.2 -34.071,64.732C-32.166,63.265 -29.429,63.623 -27.958,65.528L-3.048,97.9L3.657,42.545L-34.256,8.069C-36.038,6.45 -36.168,3.693 -34.548,1.911C-32.926,0.134 -30.171,0 -28.392,1.619L11.188,37.609C12.231,38.558 12.75,39.956 12.584,41.357L4.33,109.531C4.117,111.29 2.861,112.744 1.154,113.212C0.771,113.316 0.383,113.367 0,113.367" style="fill:rgb(41,171,226);fill-rule:nonzero;"/>
        </g>
        <g transform="matrix(1,0,0,1,401.621,1044.78)">
            <path d="M0,95.14C-2.408,95.14 -4.359,93.188 -4.359,90.781L-4.359,4.36C-4.359,1.952 -2.408,0 0,0C2.408,0 4.359,1.952 4.359,4.36L4.359,90.781C4.359,93.188 2.408,95.14 0,95.14" style="fill:rgb(41,171,226);fill-rule:nonzero;"/>
        </g>
        <g transform="matrix(1,0,0,1,382.007,1065.53)">
            <path d="M0,95.14C-2.408,95.14 -4.359,93.188 -4.359,90.781L-4.359,4.36C-4.359,1.952 -2.408,0 0,0C2.407,0 4.359,1.952 4.359,4.36L4.359,90.781C4.359,93.188 2.407,95.14 0,95.14" style="fill:rgb(41,171,226);fill-rule:nonzero;"/>
        </g>
        <g transform="matrix(1,0,0,1,421.234,1076.03)">
            <path d="M0,95.14C-2.407,95.14 -4.359,93.188 -4.359,90.781L-4.359,4.36C-4.359,1.952 -2.407,0 0,0C2.408,0 4.359,1.952 4.359,4.36L4.359,90.781C4.359,93.188 2.408,95.14 0,95.14" style="fill:rgb(41,171,226);fill-rule:nonzero;"/>
        </g>
        <g transform="matrix(1,0,0,1,450.818,882.565)">
            <path d="M0,8.719L-98.463,8.719C-100.87,8.719 -102.822,6.767 -102.822,4.36C-102.822,1.952 -100.87,0 -98.463,0L0,0C2.408,0 4.359,1.952 4.359,4.36C4.359,6.767 2.408,8.719 0,8.719" style="fill:rgb(41,171,226);fill-rule:nonzero;"/>
        </g>
        <g transform="matrix(1,0,0,1,342.208,1108.74)">
            <path d="M0,84.553C-14.775,84.553 -26.795,72.532 -26.795,57.755C-26.798,42.77 -14.547,30.583 0.622,30.964C0.402,29.593 0.293,28.203 0.293,26.798C0.293,12.021 12.314,0 27.089,0C31.119,0 34.995,0.873 38.607,2.596C40.781,3.632 41.702,6.234 40.668,8.407C39.629,10.582 37.025,11.499 34.856,10.467C32.423,9.307 29.812,8.72 27.089,8.72C17.121,8.72 9.013,16.829 9.013,26.798C9.013,29.463 9.602,32.06 10.767,34.515C11.509,36.083 11.252,37.942 10.109,39.248C8.968,40.558 7.152,41.065 5.504,40.536C3.712,39.966 1.86,39.677 0,39.677C-9.969,39.677 -18.077,47.786 -18.077,57.755C-18.077,67.724 -9.969,75.834 0,75.834C2.407,75.834 4.359,77.785 4.359,80.194C4.359,82.601 2.407,84.553 0,84.553" style="fill:rgb(41,171,226);fill-rule:nonzero;"/>
        </g>
        <g transform="matrix(1,0,0,1,461.031,1108.74)">
            <path d="M0,84.553C-2.408,84.553 -4.359,82.601 -4.359,80.194C-4.359,77.785 -2.408,75.834 0,75.834C9.966,75.834 18.077,67.724 18.077,57.755C18.077,47.786 9.966,39.677 0,39.677C-2.61,39.677 -5.16,40.242 -7.574,41.361C-9.283,42.146 -11.292,41.752 -12.578,40.392C-13.864,39.026 -14.132,36.99 -13.245,35.338C-11.839,32.729 -11.099,29.777 -11.099,26.798C-11.099,16.829 -19.209,8.72 -29.177,8.72C-32.104,8.72 -34.899,9.399 -37.483,10.736C-39.621,11.847 -42.251,11.006 -43.358,8.866C-44.465,6.73 -43.629,4.098 -41.49,2.991C-37.709,1.035 -33.452,0 -29.177,0C-14.4,0 -2.38,12.021 -2.38,26.798C-2.38,28.24 -2.497,29.678 -2.729,31.096C-1.826,31.004 -0.916,30.957 0,30.957C14.777,30.957 26.795,42.978 26.795,57.755C26.795,72.532 14.777,84.553 0,84.553" style="fill:rgb(41,171,226);fill-rule:nonzero;"/>
        </g>
    </g>
</svg>
