<svg
   xmlns:dc="http://purl.org/dc/elements/1.1/"
   xmlns:cc="http://creativecommons.org/ns#"
   xmlns:rdf="http://www.w3.org/1999/02/22-rdf-syntax-ns#"
   xmlns:svg="http://www.w3.org/2000/svg"
   xmlns="http://www.w3.org/2000/svg"
   viewBox="0 0 1776.64 1191.708"
   height="1191.708"
   width="1776.64"
   xml:space="preserve"
   id="svg2"
   version="1.1"><metadata
     id="metadata8"><rdf:RDF><cc:Work
         rdf:about=""><dc:format>image/svg+xml</dc:format><dc:type
           rdf:resource="http://purl.org/dc/dcmitype/StillImage" /></cc:Work></rdf:RDF></metadata><defs
     id="defs6" /><g
     transform="matrix(1.3333333,0,0,-1.3333333,0,1191.7096)"
     id="g10"><g
       transform="scale(0.1)"
       id="g12"><path
         id="path14"
         style="fill:#51aee5;fill-opacity:1;fill-rule:nonzero;stroke:none"
         d="M 695.918,1172.86 H 168.875 V 740.449 H 640.242 V 601.281 H 168.875 V 155.883 H 695.918 V 16.6992 H 0 V 1312.04 h 695.918 v -139.18" /><path
         id="path16"
         style="fill:#51aee5;fill-opacity:1;fill-rule:nonzero;stroke:none"
         d="m 1421.4,1050.38 c 252.38,0 417.55,-129.907 469.51,-343.317 h -181.87 c -35.26,122.476 -137.32,200.417 -287.64,200.417 -185.58,0 -322.91,-131.761 -322.91,-380.429 0,-252.391 137.33,-384.149 322.91,-384.149 150.32,0 250.53,72.368 287.64,200.43 h 181.87 C 1838.95,141.043 1673.78,0.0117188 1421.4,0.0117188 1131.9,0.0117188 925.906,204.141 925.906,527.051 c 0,319.191 205.994,523.329 495.494,523.329" /><path
         id="path18"
         style="fill:#51aee5;fill-opacity:1;fill-rule:nonzero;stroke:none"
         d="m 2595.98,148.461 c 176.29,0 348.88,120.629 348.88,378.59 0,256.09 -168.87,376.719 -343.31,376.719 -178.16,0 -339.61,-120.629 -339.61,-376.719 0,-257.961 157.74,-378.59 334.04,-378.59 z m 0,-148.4492812 c -287.65,0 -506.63,204.1292812 -506.63,527.0392812 0,321.039 226.41,523.329 514.05,523.329 289.5,0 514.05,-202.29 514.05,-523.329 0,-322.91 -231.97,-527.0392812 -521.47,-527.0392812" /><path
         id="path20"
         style="fill:#51aee5;fill-opacity:1;fill-rule:nonzero;stroke:none"
         d="m 4845.03,592 c 0,207.84 -111.34,313.621 -278.37,313.621 -170.73,0 -287.64,-109.492 -287.64,-328.469 V 16.6992 H 4112 V 592 c 0,207.84 -111.35,313.621 -278.37,313.621 -170.73,0 -287.64,-109.492 -287.64,-328.469 V 16.6992 H 3377.11 V 1033.67 h 168.88 v -146.6 c 66.81,107.629 187.43,165.16 321.05,165.16 167.02,0 306.2,-74.23 373.01,-226.398 59.38,146.598 204.13,226.398 360.02,226.398 231.97,0 411.98,-144.75 411.98,-436.109 V 16.6992 H 4845.03 V 592" /><path
         id="path22"
         style="fill:#2a3244;fill-opacity:1;fill-rule:nonzero;stroke:none"
         d="m 5728.19,155.883 c 337.75,0 514.05,189.297 514.05,504.777 0,315.481 -176.3,512.2 -514.05,512.2 H 5494.36 V 155.883 Z m 686.64,504.777 c 0,-400.847 -261.67,-643.9608 -686.64,-643.9608 h -402.7 V 1310.18 h 402.7 c 424.97,0 686.64,-248.67 686.64,-649.52" /><path
         id="path24"
         style="fill:#2a3244;fill-opacity:1;fill-rule:nonzero;stroke:none"
         d="m 6674.47,1033.67 h 168.87 V 16.6992 h -168.87 z m -27.84,280.22 c 0,64.95 50.1,115.06 115.06,115.06 61.24,0 111.34,-50.11 111.34,-115.06 0,-64.95 -50.1,-115.06 -111.34,-115.06 -64.96,0 -115.06,50.11 -115.06,115.06" /><path
         id="path26"
         style="fill:#2a3244;fill-opacity:1;fill-rule:nonzero;stroke:none"
         d="M 7528.04,0.0117188 C 7290.5,0.0117188 7123.48,129.91 7112.35,315.48 h 174.44 c 9.28,-98.347 96.5,-172.578 239.42,-172.578 133.61,0 207.85,66.797 207.85,150.317 0,226.402 -601.3,94.64 -601.3,473.222 0,155.891 146.61,283.939 373.01,283.939 224.53,0 372.99,-120.63 384.17,-319.2 h -168.9 c -7.42,102.07 -85.36,176.3 -220.86,176.3 -124.32,0 -198.54,-59.39 -198.54,-141.039 0,-241.25 590.13,-109.492 597.55,-473.222 0,-167.02 -146.62,-293.2072812 -371.15,-293.2072812" /><path
         id="path28"
         style="fill:#2a3244;fill-opacity:1;fill-rule:nonzero;stroke:none"
         d="m 8606.1,1050.38 c 252.38,0 417.53,-129.907 469.49,-343.317 h -181.83 c -35.28,122.476 -137.37,200.417 -287.66,200.417 -185.58,0 -322.91,-131.761 -322.91,-380.429 0,-252.391 137.33,-384.149 322.91,-384.149 150.29,0 250.54,72.368 287.66,200.43 h 181.83 C 9023.63,141.043 8858.48,0.0117188 8606.1,0.0117188 c -289.5,0 -495.52,204.1292812 -495.52,527.0392812 0,319.191 206.02,523.329 495.52,523.329" /><path
         id="path30"
         style="fill:#2a3244;fill-opacity:1;fill-rule:nonzero;stroke:none"
         d="m 9780.7,148.461 c 176.28,0 348.9,120.629 348.9,378.59 0,256.09 -168.87,376.719 -343.36,376.719 -178.15,0 -339.59,-120.629 -339.59,-376.719 0,-257.961 157.77,-378.59 334.05,-378.59 z m 0,-148.4492812 c -287.63,0 -506.65,204.1292812 -506.65,527.0392812 0,321.039 226.45,523.329 514.07,523.329 289.48,0 514.08,-202.29 514.08,-523.329 0,-322.91 -232,-527.0392812 -521.5,-527.0392812" /><path
         id="path32"
         style="fill:#2a3244;fill-opacity:1;fill-rule:nonzero;stroke:none"
         d="m 10623.1,1033.67 317.3,-861.08 315.5,861.08 h 180 l -399,-1016.9708 h -196.7 l -399,1016.9708 h 181.9" /><path
         id="path34"
         style="fill:#2a3244;fill-opacity:1;fill-rule:nonzero;stroke:none"
         d="m 11751.2,599.422 h 642.2 c 1.8,198.558 -146.6,308.058 -321.1,308.058 -165.2,0 -302.5,-109.5 -321.1,-308.058 z M 12079.7,0.0117188 c -289.5,0 -502.9,204.1292812 -502.9,527.0392812 0,321.039 206,523.329 502.9,523.329 295.1,0 488.1,-207.849 488.1,-486.22 0,-37.109 -1.9,-66.808 -5.6,-102.058 h -812.8 c 13,-206 157.7,-319.2 330.3,-319.2 152.2,0 248.7,77.95 285.8,187.43 h 181.9 C 12495.4,144.75 12332.1,0.0117188 12079.7,0.0117188" /><path
         id="path36"
         style="fill:#2a3244;fill-opacity:1;fill-rule:nonzero;stroke:none"
         d="m 12996.4,16.6992 h -168.9 V 1033.67 h 168.9 V 868.512 c 57.5,113.199 167,183.718 328.4,183.718 V 877.789 h -44.5 c -161.5,0 -283.9,-72.367 -283.9,-308.059 V 16.6992" /><path
         id="path38"
         style="fill:#51aee5;fill-opacity:1;fill-rule:nonzero;stroke:none"
         d="m 6106.91,4152.12 c -16.8,0 -33.04,8.97 -41.57,24.78 -3.73,6.91 -375.08,702.92 -483.28,1629.73 -100.17,857.98 9.95,2095.46 1103.43,3118.47 18.61,17.38 47.69,16.91 65.67,-1.15 20.03,-20.07 493.65,-501.1 791.02,-1325.16 274.5,-760.62 438.97,-1965.03 -336.37,-3383.34 l -28.06,-42.35 c -14.5,-21.69 -43.77,-27.47 -65.48,-13.03 -21.66,14.51 -27.49,43.79 -13.02,65.48 l 25.9,38.76 c 756.3,1383.9 596.14,2560.08 328.23,3302.45 -246.92,684.23 -626.71,1134.65 -737.64,1256.96 C 5683.99,7834.88 5579.56,6647.07 5675.46,5820.66 c 105.56,-909.55 469.27,-1592.14 472.94,-1598.92 12.38,-22.95 3.82,-51.57 -19.11,-63.94 -7.14,-3.86 -14.82,-5.68 -22.38,-5.68" /><path
         id="path40"
         style="fill:#51aee5;fill-opacity:1;fill-rule:nonzero;stroke:none"
         d="m 5122.6,5041.37 c -4.15,0 -8.34,0.55 -12.49,1.69 -18.48,5.07 -32.06,20.81 -34.36,39.84 l -136.62,1128.24 c -1.85,15.17 3.77,30.31 15.09,40.59 l 644.63,586.16 c 19.34,17.54 49.14,16.11 66.68,-3.15 17.54,-19.29 16.13,-49.14 -3.16,-66.68 l -626.61,-569.78 119.82,-989.45 442.93,575.56 c 15.92,20.65 45.56,24.5 66.19,8.62 20.65,-15.9 24.52,-45.54 8.62,-66.19 L 5160,5059.79 c -9.08,-11.8 -22.97,-18.42 -37.4,-18.42" /><path
         id="path42"
         style="fill:#51aee5;fill-opacity:1;fill-rule:nonzero;stroke:none"
         d="m 8207.76,5041.37 c -14.43,0 -28.32,6.62 -37.4,18.42 l -519.86,675.54 c -15.91,20.65 -12.03,50.28 8.62,66.18 20.6,15.86 50.29,12.08 66.19,-8.61 l 449.47,-584.07 119.82,989.45 -637.01,579.23 c -19.28,17.54 -20.69,47.38 -3.15,66.68 17.52,19.26 47.33,20.67 66.67,3.15 l 655.03,-595.61 c 11.32,-10.28 16.94,-25.42 15.09,-40.59 L 8254.61,5082.9 c -2.3,-19.03 -15.88,-34.77 -34.36,-39.84 -4.14,-1.14 -8.34,-1.69 -12.49,-1.69" /><path
         id="path44"
         style="fill:#51aee5;fill-opacity:1;fill-rule:nonzero;stroke:none"
         d="m 6662.43,3473.18 c -26.07,0 -47.2,21.13 -47.2,47.2 v 1430.24 c 0,26.06 21.13,47.2 47.2,47.2 26.06,0 47.19,-21.14 47.19,-47.2 V 3520.38 c 0,-26.07 -21.13,-47.2 -47.19,-47.2" /><path
         id="path46"
         style="fill:#51aee5;fill-opacity:1;fill-rule:nonzero;stroke:none"
         d="m 6303.89,3129.81 c -26.06,0 -47.2,21.13 -47.2,47.2 v 1430.21 c 0,26.07 21.14,47.2 47.2,47.2 26.07,0 47.2,-21.13 47.2,-47.2 V 3177.01 c 0,-26.07 -21.13,-47.2 -47.2,-47.2" /><path
         id="path48"
         style="fill:#51aee5;fill-opacity:1;fill-rule:nonzero;stroke:none"
         d="m 6953.06,2956.01 c -26.06,0 -47.2,21.13 -47.2,47.2 v 1430.24 c 0,26.07 21.14,47.21 47.2,47.21 26.08,0 47.21,-21.14 47.21,-47.21 V 3003.21 c 0,-26.07 -21.13,-47.2 -47.21,-47.2" /><path
         id="path50"
         style="fill:#51aee5;fill-opacity:1;fill-rule:nonzero;stroke:none"
         d="M 7476.64,7587.98 H 5847.13 c -26.06,0 -47.19,21.14 -47.19,47.21 0,26.06 21.13,47.19 47.19,47.19 h 1629.51 c 26.06,0 47.19,-21.13 47.19,-47.19 0,-26.07 -21.13,-47.21 -47.19,-47.21" /><path
         id="path52"
         style="fill:#51aee5;fill-opacity:1;fill-rule:nonzero;stroke:none"
         d="m 5352.72,1778.89 c -346.44,0 -628.3,281.86 -628.3,628.29 0,346.44 281.86,628.29 628.3,628.29 33.69,0 67.23,-2.69 100.37,-8.08 -18,58.84 -27.08,119.59 -27.08,181.53 0,346.44 281.86,628.3 628.29,628.3 94.46,0 185.31,-20.47 270.01,-60.82 23.53,-11.23 33.51,-39.39 22.31,-62.92 -11.23,-23.57 -39.5,-33.42 -62.91,-22.31 -71.91,34.28 -149.1,51.65 -229.41,51.65 -294.4,0 -533.9,-239.5 -533.9,-533.9 0,-78.89 17.4,-155.58 51.74,-228 8.04,-16.98 5.26,-37.13 -7.12,-51.28 -12.4,-14.15 -32.06,-19.59 -49.87,-13.89 -52.71,16.8 -107.35,25.33 -162.43,25.33 -294.4,0 -533.9,-239.5 -533.9,-533.9 0,-294.39 239.5,-533.89 533.9,-533.89 26.06,0 47.2,-21.14 47.2,-47.2 0,-26.06 -21.14,-47.2 -47.2,-47.2" /><path
         id="path54"
         style="fill:#51aee5;fill-opacity:1;fill-rule:nonzero;stroke:none"
         d="m 7972.13,1778.89 c -26.06,0 -47.19,21.14 -47.19,47.2 0,26.06 21.13,47.2 47.19,47.2 294.4,0 533.9,239.5 533.9,533.89 0,294.4 -239.5,533.9 -533.9,533.9 -77.27,0 -152.57,-16.71 -223.73,-49.67 -18.53,-8.57 -40.33,-4.3 -54.21,10.47 -13.91,14.77 -16.82,36.83 -7.21,54.71 41.48,77.12 63.41,164.39 63.41,252.33 0,294.4 -239.51,533.9 -533.9,533.9 -86.54,0 -169.05,-20.03 -245.28,-59.53 -23.17,-12.07 -51.64,-2.97 -63.62,20.19 -12,23.14 -2.97,51.62 20.2,63.61 88.49,45.88 188.33,70.13 288.7,70.13 346.43,0 628.29,-281.86 628.29,-628.3 0,-65.89 -10.46,-131.43 -30.65,-193.82 51.48,13.56 104.3,20.37 158,20.37 346.44,0 628.29,-281.85 628.29,-628.29 0,-346.43 -281.85,-628.29 -628.29,-628.29" /></g></g></svg>